/* XPM */
static char *_cbe131f164e4c6ca54fd78db11f6451ni900FeMIEKEkeGC[] = {
/* columns rows colors chars-per-pixel */
"64 64 224 2 ",
"   c #0A080A",
".  c #1B0403",
"X  c #170807",
"o  c #190E12",
"O  c #1C1416",
"+  c #171219",
"@  c #260807",
"#  c #2D0D0B",
"$  c #3B0303",
"%  c #380808",
"&  c #23120D",
"*  c #2A140B",
"=  c #32150B",
"-  c #391A0E",
";  c #2E0E11",
":  c #241513",
">  c #2C1412",
",  c #2C1A13",
"<  c #291A1B",
"1  c #2C1C1B",
"2  c #321912",
"3  c #3A1A16",
"4  c #331C18",
"5  c #2A2017",
"6  c #2C2D16",
"7  c #24241C",
"8  c #2B231C",
"9  c #272F19",
"0  c #2B2E19",
"q  c #322618",
"w  c #33221C",
"e  c #3B231E",
"r  c #24311C",
"t  c #2C321C",
"y  c #1D1A24",
"u  c #261F26",
"i  c #351F25",
"p  c #0E3B2B",
"a  c #1C3727",
"s  c #143A2A",
"d  c #063F34",
"f  c #0A3E34",
"g  c #1C3634",
"h  c #143B35",
"j  c #272627",
"k  c #2A2D24",
"l  c #2A2F2C",
"z  c #332622",
"x  c #3B2B24",
"c  c #372B29",
"v  c #2C3323",
"b  c #283627",
"n  c #2D392D",
"m  c #3C392E",
"M  c #2A2F32",
"N  c #3D2F3B",
"B  c #263134",
"V  c #2A3034",
"C  c #2D3D34",
"Z  c #2E3E39",
"A  c #353936",
"S  c #460505",
"D  c #4B0B0A",
"F  c #570608",
"G  c #46170B",
"H  c #430D11",
"J  c #491817",
"K  c #541110",
"L  c #5B1916",
"P  c #591718",
"I  c #630B0C",
"U  c #6B0E17",
"Y  c #750D17",
"T  c #661619",
"R  c #73141D",
"E  c #79191B",
"W  c #4C220E",
"Q  c #472819",
"!  c #532C1B",
"~  c #6A221C",
"^  c #5D1E23",
"/  c #6D1D23",
"(  c #741C25",
")  c #7C1D22",
"_  c #482B25",
"`  c #552627",
"'  c #49342B",
"]  c #5D3525",
"[  c #4C3936",
"{  c #553834",
"}  c #6A2224",
"|  c #6A2B2B",
" . c #762329",
".. c #733933",
"X. c #024235",
"o. c #0C473B",
"O. c #2E442C",
"+. c #31442B",
"@. c #2C4037",
"#. c #2F4935",
"$. c #2E423B",
"%. c #2E4A3E",
"&. c #354934",
"*. c #324A3D",
"=. c #2E513F",
"-. c #36563C",
";. c #454239",
":. c #574135",
">. c #7C472C",
",. c #694637",
"<. c #6C4B3C",
"1. c #774A3A",
"2. c #473A40",
"3. c #1D5141",
"4. c #2E4A40",
"5. c #314C41",
"6. c #2E5244",
"7. c #295946",
"8. c #315445",
"9. c #315946",
"0. c #315748",
"q. c #315B49",
"w. c #24624B",
"e. c #376045",
"r. c #34624D",
"t. c #39654A",
"y. c #39694E",
"u. c #366750",
"i. c #3A6E52",
"p. c #3C7053",
"a. c #3C7155",
"s. c #3D7559",
"d. c #3F785B",
"f. c #484945",
"g. c #584445",
"h. c #455242",
"j. c #5B544B",
"k. c #524C56",
"l. c #5A5954",
"z. c #674B46",
"x. c #6C534A",
"c. c #795546",
"v. c #685756",
"b. c #735A55",
"n. c #446857",
"m. c #506557",
"M. c #6A625C",
"N. c #7C6A5B",
"B. c #665E65",
"V. c #597D6A",
"C. c #6B6669",
"Z. c #766969",
"A. c #7A7674",
"S. c #841C1F",
"D. c #821D26",
"F. c #862728",
"G. c #8D2B2C",
"H. c #91272D",
"J. c #8A312A",
"K. c #92302C",
"L. c #892E31",
"P. c #932D34",
"I. c #992C35",
"U. c #873336",
"Y. c #953337",
"T. c #87534C",
"R. c #86594C",
"E. c #836858",
"W. c #816769",
"Q. c #847A7A",
"!. c #A37866",
"~. c #AC756D",
"^. c #57846C",
"/. c #608273",
"(. c #9B8A79",
"). c #A98777",
"_. c #B98E77",
"`. c #C48D7A",
"'. c #877B84",
"]. c #7A8080",
"[. c #8A8488",
"{. c #96908F",
"}. c #A68C8A",
"|. c #A8998D",
" X c #BA9582",
".X c #B69A94",
"XX c #BBA28B",
"oX c #B7A296",
"OX c #96ADA3",
"+X c #ADB1AE",
"@X c #C89A8A",
"#X c #D0958C",
"$X c #D4A48E",
"%X c #C8A997",
"&X c #D4AA96",
"*X c #C8B09F",
"=X c #D8B29B",
"-X c #E2B19D",
";X c #C8ADA0",
":X c #DAB6A6",
">X c #DFBFB4",
",X c #E4B4AD",
"<X c #E5BAAB",
"1X c #DAC7B9",
"2X c #E2C3AB",
"3X c #EAC9BA",
"4X c #F7C9BA",
"5X c #F2CDBB",
"6X c #ECD1BE",
"7X c #FDD3B5",
"8X c #F4D4BC",
"9X c #F8D6BA",
"0X c #FBD5BC",
"qX c #BDBCC2",
"wX c #C9C5C9",
"eX c #D6D2CC",
"rX c #D7D5D7",
"tX c #ECD6C5",
"yX c #FBDAC3",
"uX c #F8D8C6",
"iX c #F0D7CF",
"pX c #FAE3CE",
"aX c #EBE5DC",
"sX c #FCE8D6",
/* pixels */
"V V V V V V B f X.9 t d.s.s.s.s.s.s.s.s.s.0 6 X.X.B V V V V V V V V V V V V V f X.r 6 t.s.s.s.s.s.s.d.d.d.+.6 p X.g V V V V V 4.",
"V V V V V V B f X.t t s.s.s.s.s.s.s.s.s.s.t 9 X.X.B V V V V V V V V V V V V V f X.r 6 t.s.s.s.s.s.s.s.s.s.+.6 p X.g V V V V V 4.",
"V V V V V h X.b t y.a.q.q.q.q.q.q.q.q.q.q.a.a.t 9 X.X.X.X.B V V V V V V V d X.r 9 t.a.r.q.q.q.q.q.q.q.q.q.u.a.O.9 p X.g V V V 4.",
"V V V V V h X.r t i.s.q.q.q.q.q.q.q.q.q.q.s.s.0 6 X.X.X.X.B V V V V V V V X.X.r 6 y.s.r.q.q.q.q.q.q.q.q.q.i.s.+.6 p X.g V V V 4.",
"V V V g X.a t 9.i.q.q.q.q.q.q.q.q.q.q.q.q.q.q.p.p.t 9 X.X.B V V V V V f X.r 9 t.p.r.q.q.q.q.q.q.q.q.q.q.q.q.q.u.p.O.9 s X.g V 4.",
"V V V g X.a t t.s.q.q.q.q.q.q.q.q.q.q.q.q.q.q.s.s.t 6 X.X.B V V V V V d X.r 6 y.s.q.q.q.q.q.q.q.q.q.q.q.q.q.q.i.s.+.6 s X.g V 4.",
"B X.X.s t -.a.r.q.q.q.q.q.q.q.q.q.q.q.q.q.q.q.q.q.a.a.t 9 X.X.B V d X.r 9 y.a.r.q.q.q.q.q.q.q.q.q.q.q.q.q.q.q.q.q.u.a.O.9 p X.3.",
"B X.X.s 0 -.s.r.q.q.q.q.q.q.q.q.q.q.q.q.q.q.q.q.q.s.s.t 6 X.X.B V X.X.9 6 i.s.r.q.q.q.q.q.q.q.q.q.q.q.q.q.q.q.q.q.i.s.+.6 p X.3.",
"d 9 t &.i.r.q.%.$.9.q.q.q.q.q.q.q.q.q.q.q.$.$.q.q.q.q.i.p.t 9 d X.r 9 t.p.r.q.q.q.$.$.0.q.q.q.q.q.q.q.q.q.q.q.q.q.q.q.y.p.O.9 #.",
"X.6 t &.s.u.0.$.$.9.q.q.q.q.q.q.q.q.q.q.q.$.$.q.q.q.q.a.s.t 6 d X.t 6 y.s.q.q.q.q.$.$.6.q.q.q.q.q.q.q.q.q.q.q.q.q.q.q.i.s.+.6 #.",
"v a.a.u.q.q.q.q.q.q.q.q.q.q.q.q.q.q.q.q.q.q.q.q.q.: : o 6.i.i.t 9 y.p.q.q.q.q.q.q.q.q.q.q.q.q.q.q.q.q.q.q.q.q.q.q.q.q.q.q.u.a.0.",
"t s.s.i.q.q.q.q.q.q.q.q.q.q.q.q.q.q.q.q.q.q.q.q.< > x 3 e & & 0 6 a.5 A k 6.q.q.q.q.q.q.q.q.q.q.q.q.q.q.q.q.q.q.q.q.q.q.q.i.s.8.",
"t q.q.q.q.4.$.8.q.q.q.q.q.q.q.q.q.q.q.q.q.q.q.q.j.% H ^ ` H H % @ % J _ ' _ h.9.q.q.q.q.q.q.q.q.q.q.q.q.q.q.q.q.q.%.$.6.q.q.q.q.",
"t q.q.q.q.4.$.6.q.q.q.q.q.q.q.q.q.q.q.q.q.0.& # ` P  .T / T P T D D } T } | ` 3 w 8 %.q.q.q.q.q.q.q.q.q.q.q.q.q.q.%.$.6.q.q.q.q.",
"t q.q.q.q.q.q.q.q.q.q.q.q.q.q.q.q.q.q.q.q.o > ` | U.U.E Y.) R R T F R ) E U K J [ z 8.q.q.q.q.q.q.q.q.q.q.q.q.q.q.q.q.q.q.q.q.q.",
"t q.q.q.q.q.q.q.q.q.q.q.q.q.q.q.q.q.q.q.q.6.@ % K F Y Y I.Y ) P.) U F.G.G.) L.1.' # %.q.q.q.q.q.q.q.q.q.q.q.q.q.q.q.q.q.q.q.q.q.",
"t q.q.q.q.q.q.q.q.q.q.q.q.q.q.q.q.q.q.q.q.q.8.$ I E H.I.I.S.F.J.L.D.H.F.G.G.P. .H $.9.q.q.q.q.q.q.q.q.q.q.q.q.q.q.q.q.q.q.q.q.q.",
"t q.q.q.q.q.q.q.q.q.q.q.q.q.q.q.q.q.q.q.q.q.# L J.G.I.I.H.E K.K.P.I F.H.E G.P.R % *.q.q.q.q.q.q.q.q.q.q.q.q.q.q.q.q.q.q.q.q.q.q.",
"0 $.$.4.q.q.q.q.q.q.q.q.q.q.q.q.q.q.q.q.q.@ $ L F.Y.Y.R F.R H.I.F.F ) P.U L.Y. .$ *.q.q.q.q.q.q.q.q.q.q.q.q.q.q.q.q.q.q.q.%.$.$.",
"0 $.$.4.q.q.q.q.q.q.q.q.q.q.q.q.q.q.q.q.& % P T L.) U ( U F G.Y.~ F I L. .F ( ..^ # *.q.q.q.q.q.q.q.q.q.q.q.q.q.q.q.q.q.q.%.$.Z ",
"l 0 0 v $.8.q.q.q.q.q.q.q.q.q.q.q.q.q.q.. % S } T T } T S F  .L.~ S F  .U.F S } | % *.q.q.q.q.q.q.q.q.q.q.q.q.q.q.q.q.4.$.v 0 #.",
"M 6 0 v $.5.q.q.q.q.q.q.q.q.q.q.q.q.q.q.9.% P P L D L $ ,XK K } $ ,XT.T U.} D D P H *.q.q.q.q.q.q.q.q.q.q.q.q.q.q.q.q.%.$.v 6 #.",
"M M M k 0 n $.0.q.q.q.q.q.q.q.q.q.q.q.4.M.# H S D D R.<X4X<XJ G c.5X4X~.L ~ $ $ D ` , %.q.q.q.q.q.q.q.q.q.q.q.q.q.%.$.v 9 l M %.",
"V V M l 6 n $.6.q.q.q.q.q.q.q.q.q.q.6.  1 @ z.$ $ <X5X5X0X9X<X- :X5XyX4X$XJ $ ..~.J e 8.q.q.q.q.q.q.q.q.q.q.q.q.q.%.$.v 6 l V 4.",
"V V M M l k t C $.9.q.q.q.q.q.q.q.q.q.X . {.% $ @X4XyXpXuX8XyX2X6XpXuX=X-X#XJ ~.3X_ : %.q.q.q.q.q.q.q.q.q.q.q.4.$.v 9 l M M V Z ",
"V V V V M k 0 C $.9.q.q.q.q.q.q.q.q.q.9.< {..X1.@X Xc.c.%X6X9X9XtX*XE.).@X`.$X&X>X[ & %.q.q.q.q.q.q.q.q.q.q.q.%.$.v 6 l V V V C ",
"V V V V M M l k t @.$.q.q.q.q.q.q.q.q.q.i A.tX X=XXXQ w .X;X5X9X*X*XQ _.&X_.@X3X(.z n 6.q.q.q.q.q.q.q.q.q.%.$.v 0 l M h X.g V k ",
"V V V V V V M 0 9 C $.q.q.q.q.q.q.q.q.q.0.i Q  X%XpXx M.iXiX8X9XuXsX,.1X-X`.&X:.q A $.6.q.q.q.q.q.q.q.q.q.$.$.v 6 l V f X.g V k ",
"V V V V V V M M l 0 t $.$.$.$.$.$.$.$.$.$.t j.Q XXtX:.' aXtX9X7XuXsX<.2X&X] - oXA.m 0 C $.$.$.$.$.$.$.$.$.v 0 l M M V B B V V 8.",
"V V V V V V V V M 0 0 $.$.$.$.$.$.$.$.$.$.t N.(.|.tXtX3XtXuXyX0XtXyX5X5X@XQ 1X+Xf.9 6 C $.$.$.$.$.$.$.$.$.v 6 l V V V V V V V 9.",
"V V V V V V V V B f d 0 0 0 0 0 0 0 0 0 6 o.+X.XE.%X5X8XyX0X7X7XuXuXuX:XN._ eXeXk.d X.r 0 0 0 0 0 0 0 0 0 s X.g V V V V V V V 4.",
"V V V V V V V V B X.X.6 6 6 6 6 6 6 6 6 6 o.rX}.; R.R.$X9X7X7X0XyX8X).R.2 X O wX].o.X.r 6 6 6 6 6 6 6 6 6 p X.g V V V V V V V 4.",
"V V V g d g B h d r t i.i.i.i.i.i.i.i.i.i.l.+XN 2.[ # ,.1.>.>.>.1.<.Q x c k.N u qXh.9 e.i.i.i.i.i.i.i.i.i.O.9 s X.g V V V V V 4.",
"V V V g X.g B f X.9 t d.s.s.s.s.s.s.s.s.s.  j [.Q.' = Q ..>.>.>.1.J x.}.l.'.2.o wXh.6 t.s.s.s.s.s.s.s.s.s.+.6 p X.g V V V V V 4.",
"V V V V B h d b t y.i.q.q.q.q.q.q.q.q.q.q.  B.Z.4 . { ,.1.1.1.1.<.= b.Q.'.B.k.+ wXV.i.r.q.q.q.q.q.q.q.q.q.u.p.O.9 p X.g V V V 4.",
"V V V V V h X.r t i.s.q.q.q.q.q.q.q.q.q.q.o Z.z.1X}.<.Q ,.c.<.1.z.w Z.v.{.N C.+ wX^.s.r.q.q.q.q.q.q.q.q.q.p.s.+.6 p X.g V V V 4.",
"V V V g d a t 9.i.q.q.q.q.q.q.q.q.q.q.q.q.X :.b.3XiX%X!.! <.c.' & z A.Q.C.k.y +XOXn.q.q.q.q.q.q.q.q.q.q.q.q.q.y.i.O.9 s X.g V v ",
"V V V g X.a t t.s.q.q.q.q.q.q.q.q.q.q.q.q.6.* oXuX5X%X XQ Q _ @ C.C.Z.[.C.+ qX+X^.q.q.q.q.q.q.q.q.q.q.q.q.q.q.i.s.+.6 p X.g V k ",
"B X.X.s t -.i.r.q.q.q.q.q.q.q.q.q.q.q.q.q.q.X ).6X:X! Q G Q @ { Q.[.C.l.j + rX/.q.q.q.q.q.q.q.q.q.q.q.q.q.q.q.q.q.u.i.O.9 p X.7.",
"B X.X.s t -.s.r.q.q.q.q.q.q.q.q.q.q.q.q.q.q.8.x.|.Q c.<X6X3X>X3 j.|.A.O + + rXV.q.q.q.q.q.q.q.q.q.q.q.q.q.q.q.q.q.i.s.+.6 p X.w.",
"d 9 r &.i.r.q.q.9.$.$.q.q.q.q.q.q.q.q.q.q.q.q.m.' - :XpXyX0XuX<Xc g.c 2.O O OXn.q.q.q.q.q.q.q.q.q.q.q.q.q.%.$.6.q.q.q.y.i.O.9 #.",
"X.6 t &.s.u.q.q.9.$.$.q.q.q.q.q.q.q.q.q.q.q.q.q., = 3XuX5X=X=X4Xw : 1 < : : n.q.q.q.q.q.q.q.q.q.q.q.q.q.q.$.$.6.q.q.q.i.s.+.6 #.",
"v i.i.r.q.q.q.q.q.0.0.q.q.q.q.q.q.q.q.q.q.q.q.q.5 , Q %X X!.!.!.> . > & > < 8.q.q.q.q.q.q.q.q.q.q.q.q.q.q.q.0.q.q.q.q.q.q.y.i.r.",
"t s.s.i.q.q.q.q.q.q.q.q.q.q.q.q.q.q.q.q.q.q.q.q.7 x 2 Q G W ! W 2 2 e 3 4 & 8.q.q.q.q.q.q.q.q.q.q.q.q.q.q.q.q.q.q.q.q.q.q.i.s.u.",
"t q.q.q.q.q.q.q.q.q.q.q.q.q.q.q.q.q.q.q.q.q.q.q.k c z.z.= ,.<.,.z.x.{ e 2 & C 0.q.q.q.q.q.q.q.q.q.q.q.q.q.q.q.q.q.q.q.q.q.q.q.q.",
"t q.q.q.q.q.q.q.q.q.q.q.q.q.q.q.q.q.q.q.q.q.q.q.7 z & 2 2 = = _ _ _ Q 3 > & C 6.q.q.q.q.q.q.q.q.q.q.q.q.q.q.q.q.q.q.q.q.q.q.q.q.",
"t q.q.q.q.q.q.q.q.q.q.q.q.q.q.q.q.q.q.q.q.q.q.q.6.8 w * , > , > q * = = , X %.q.q.q.q.q.q.q.q.q.q.q.q.q.q.q.q.q.q.q.q.q.q.q.q.q.",
"t q.q.q.q.q.q.q.q.q.q.q.q.q.q.q.q.q.q.q.q.q.q.q.q.5 m ' ' [ < X X . . _ q 5 6.q.q.q.q.q.q.q.q.q.q.q.q.q.q.q.q.q.q.q.q.q.q.q.q.q.",
"t q.q.q.q.q.q.q.q.q.q.q.q.q.q.q.q.q.q.q.q.q.q.q.n 8 m b.{ [ w 6 * 4 ` J 2 w 8.q.q.q.q.q.q.q.q.q.q.q.q.q.q.q.q.q.q.q.q.q.q.q.q.4.",
"t q.q.q.q.q.q.q.q.q.q.q.q.q.q.q.q.q.q.q.q.q.q.*.*.&.b.b.{ [ w 0 6 4 3 ` [ 1 7 6.q.q.q.q.q.q.q.q.q.q.q.q.q.q.q.q.q.q.q.q.q.q.q.4.",
"0 $.$.4.q.q.q.q.q.q.q.q.q.q.q.q.q.q.q.q.q.q.q.q.9.l.l.l.f.c z 0 6 4 [ { { ;.k =.q.q.q.q.q.q.q.q.q.q.q.q.q.q.q.q.q.q.q.q.q.4.$.6.",
"0 $.$.4.q.q.q.q.q.q.q.q.q.q.q.q.q.q.q.q.q.q.q.q.q.9.9.9.9.Z Z 0 5 c g.x.g.f.A l 6.q.q.q.q.q.q.q.q.q.q.q.q.q.q.q.q.q.q.q.q.%.$.6.",
"l 0 t n $.8.q.q.q.q.q.q.q.q.q.q.q.q.q.q.q.q.q.q.q.q.q.$.$.t 9 j c 0 v.W.C.;.j 7 %.q.q.q.q.q.q.q.q.q.q.q.q.q.q.q.q.q.q.4.$.v 0 #.",
"M 6 6 v $.5.q.q.q.q.q.q.q.q.q.q.q.q.q.q.q.q.q.q.q.q.q.$.$.0 6 l j 8 w z c k j %.q.q.q.q.q.q.q.q.q.q.q.q.q.q.q.q.q.q.q.%.$.v 6 #.",
"M M l k t n $.0.q.q.q.$.$.q.q.q.q.q.q.q.q.q.q.q.q.$.$.t 0 l M V M l l 0 0 C C 6.q.$.$.0.q.q.q.q.q.q.q.%.$.0.q.q.q.4.$.v 0 l M %.",
"V V M l 0 n $.6.q.q.q.Z $.q.q.q.q.q.q.q.q.q.q.q.q.$.Z 0 6 M V V V V V 9 6 C $.6.q.$.Z 6.q.q.q.q.q.q.q.%.Z 8.q.q.q.$.$.v 6 l V 4.",
"V V M M l v t C $.9.q.0.0.q.q.q.q.q.q.q.q.q.q.$.$.t 0 l l M V V V V V l l 0 0 @.$.8.0.q.q.q.q.q.q.q.q.0.0.q.q.4.$.v 0 l l M V 4.",
"V V V V M k 0 n C 8.0.q.q.q.q.q.q.q.q.q.q.0.0.C C 0 9 V V V V V V V V V V 0 9 n C 6.0.q.q.q.q.q.q.q.q.q.q.6.0.$.C v 9 l V V V 4.",
"V V V V M M l 0 t @.$.q.q.q.q.q.q.q.q.q.q.$.$.t 0 M M V V V V V V V V V V M M 0 0 C $.6.q.q.q.q.q.q.q.q.q.%.$.v 0 l M M V V V 4.",
"V V V V V V M k k n n 8.6.6.6.6.6.6.6.6.8.n n k k M V V V V V V V V V V V V V k k n n %.6.6.6.6.6.6.6.6.6.C n v k l V V V V V 4.",
"V V V V V V M M M 0 0 $.$.$.$.$.$.$.$.$.$.0 0 M M M V V V V V V V V V V V V V M M 0 0 C $.$.$.$.$.$.$.$.$.v 0 l M M V V V V V 4.",
"V V V V V V V V V s s v v v v v v v v v v s s V V V V V V V V V V V V V V V V V V s s b v v v v v v v v v a s B V V V V V V V 4.",
"V V V V V V V V B X.d 6 6 6 6 6 6 6 6 6 6 X.X.V V V V V V V V V V V V V V V V V V f X.r 6 6 6 6 6 6 6 6 6 p X.g V V V V V V V 4.",
"6.6.6.6.6.$.C v 9 r r 6 6 6 6 6 6 6 6 C C 7.7.6.6.6.6.6.6.6.6.6.6.6.6.6.6.6.6.6.6.@.@.t 6 6 6 6 6 6 6 6 6 9 r n Z 4.6.6.6.6.6.O."
};
