/* XPM */
static char *_e0894f57b4240f8d2ec9cf6327e63f9cC5K6hCWcrdkAVz4[] = {
/* columns rows colors chars-per-pixel */
"64 64 220 2 ",
"   c #272D15",
".  c #2C2D16",
"X  c #262F1A",
"o  c #2C2E1A",
"O  c #24321D",
"+  c #2C311B",
"@  c #363619",
"#  c #083E2F",
"$  c #1D3625",
"%  c #153B2C",
"&  c #1A382A",
"*  c #063F34",
"=  c #093E34",
"-  c #1D3734",
";  c #143C35",
":  c #1A3835",
">  c #2B2E23",
",  c #2A2F2D",
"<  c #243620",
"1  c #2C3422",
"2  c #2D372A",
"3  c #2D392C",
"4  c #272F33",
"5  c #253234",
"6  c #2A3034",
"7  c #2E3E34",
"8  c #2D3F39",
"9  c #024235",
"0  c #084034",
"q  c #2D432C",
"w  c #33452D",
"e  c #2E4136",
"r  c #2E423B",
"t  c #2F493F",
"y  c #31463B",
"u  c #374D38",
"i  c #35543A",
"p  c #35593F",
"a  c #444319",
"s  c #2F4D41",
"d  c #304F42",
"f  c #2F5446",
"g  c #2D5846",
"h  c #2F5948",
"j  c #305445",
"k  c #315946",
"l  c #3D5F47",
"z  c #315B49",
"x  c #395F49",
"c  c #376247",
"v  c #3B6146",
"b  c #34614C",
"n  c #3A654A",
"m  c #39674C",
"M  c #3A684D",
"N  c #376850",
"B  c #3B6C51",
"V  c #367055",
"C  c #3C7255",
"Z  c #3C7356",
"A  c #3D7558",
"S  c #3E775A",
"D  c #476A45",
"F  c #4A6B43",
"G  c #426748",
"H  c #4B6D49",
"J  c #47714C",
"K  c #567A48",
"L  c #487B58",
"P  c #BA7604",
"I  c #CC7E05",
"U  c #548154",
"Y  c #6C8446",
"T  c #7A8641",
"R  c #7E904B",
"E  c #BE8A05",
"W  c #AE9525",
"Q  c #A99736",
"!  c #BCA22F",
"~  c #BFB22F",
"^  c #ACA439",
"/  c #B7A134",
"(  c #CD8904",
")  c #DC8A02",
"_  c #D79304",
"`  c #DD9C07",
"'  c #DF9F16",
"]  c #E39301",
"[  c #E39C00",
"{  c #EC9C04",
"}  c #F79805",
"|  c #E79919",
" . c #D6A704",
".. c #DEB105",
"X. c #D8A511",
"o. c #DFB61E",
"O. c #E3A301",
"+. c #EAA304",
"@. c #E5AB02",
"#. c #E9A50B",
"$. c #E2AC0A",
"%. c #F1A505",
"&. c #E7B907",
"*. c #ECB40B",
"=. c #ECBB0B",
"-. c #F4B903",
";. c #FABD02",
":. c #F4BC0B",
">. c #FABD0C",
",. c #E4A315",
"<. c #E8A717",
"1. c #FBA41A",
"2. c #ECB61B",
"3. c #E7B918",
"4. c #EDBB1A",
"5. c #F5B411",
"6. c #F3BC15",
"7. c #F5BC1B",
"8. c #C29D24",
"9. c #F39E27",
"0. c #C7A02A",
"q. c #DCAA20",
"w. c #CDBA26",
"e. c #DBB629",
"r. c #C5A63A",
"t. c #C8BC3D",
"y. c #DEB73A",
"u. c #E2AA24",
"i. c #F5A925",
"p. c #F8AB28",
"a. c #E7B724",
"s. c #ECB424",
"d. c #F2BC22",
"f. c #F6B92B",
"g. c #ECBA35",
"h. c #F9BD34",
"j. c #DBCA19",
"k. c #EAC507",
"l. c #F6C506",
"z. c #FBC303",
"x. c #F6C708",
"c. c #FAC30B",
"v. c #F4CF0C",
"b. c #FCCE0B",
"n. c #EDD304",
"m. c #FBD406",
"M. c #F6D906",
"N. c #FDDD03",
"B. c #F4D20B",
"V. c #FDD50D",
"C. c #FDDC0C",
"Z. c #EAC614",
"A. c #FAC412",
"S. c #FCCB14",
"D. c #FAC51B",
"F. c #F8C819",
"G. c #EAD818",
"H. c #F4D312",
"J. c #FAD312",
"K. c #FEDB13",
"L. c #F7D71B",
"P. c #FCEC03",
"I. c #FCE708",
"U. c #FDE40B",
"Y. c #F8E816",
"T. c #FCEB1C",
"R. c #DDC522",
"E. c #D8C233",
"W. c #D6D23B",
"Q. c #F5C424",
"!. c #F7CA27",
"~. c #E7D42E",
"^. c #E8D62A",
"/. c #FAD122",
"(. c #F7DA24",
"). c #FBD32A",
"_. c #FCC134",
"`. c #F9CD39",
"'. c #E8D538",
"]. c #F8D839",
"[. c #FDE622",
"{. c #FCE536",
"}. c #9B9643",
"|. c #808B52",
" X c #929550",
".X c #A99948",
"XX c #AF9F53",
"oX c #ABAA47",
"OX c #B8B642",
"+X c #BEBA6C",
"@X c #C2BE45",
"#X c #D3CC4E",
"$X c #F7CC42",
"%X c #FAD849",
"&X c #FACC52",
"*X c #F8CC57",
"=X c #FDD354",
"-X c #FAD759",
";X c #FBE347",
":X c #EEE753",
">X c #FCE557",
",X c #EAD961",
"<X c #FDD864",
"1X c #EAE165",
"2X c #FDE764",
"3X c #FEE56C",
"4X c #FDEB6B",
"5X c #FBE973",
"6X c #FFEC7C",
"7X c #FCF275",
"8X c #FEE780",
"9X c #F2EB80",
"0X c #FCED82",
"qX c #FCF585",
"wX c #FEF38C",
"eX c #FDF998",
"rX c #FBF6A7",
"tX c #FFFCA1",
"yX c #FCFBAD",
"uX c #FFF9B0",
/* pixels */
"4 4 4 4 4 4 4 = 9 X . A A A A A A A A A A . . 9 9 6 4 4 4 4 4 4 4 4 4 4 4 4 4 9 9   . Z A A A A A A A A A + . * 9 6 4 4 4 4 4 f ",
"6 6 6 6 6 6 4 ; 9 X o A A A A A A A A A A o . 9 9 6 6 6 6 6 6 6 6 6 6 6 6 6 6 0 9 o . Z A A A A A A A A A + . 9 9 5 6 6 6 6 6 f ",
"6 6 6 6 6 - = $ O v m b z z z z z z b z b M m O O = * * * 5 6 6 6 6 6 6 6 = * O O n M b z z z z b b b b b M M < O = * 5 6 6 6 f ",
"6 6 6 6 6 : 9 < . B A z z z z z z z z z z A A + . 9 9 9 9 5 6 6 6 6 6 6 6 9 9 o . Z A z z z z z z z z z z A A + . 9 9 5 6 6 6 f ",
"6 6 6 5 = & O i n b b z z z z z z z z z z b b n n O O 9 9 5 6 6 6 6 6 = = O O c n b b z z z z z z z z z z b b n n < O = = 5 6 f ",
"6 6 6 5 9 $ o v A z z z z z z z z z z z z z z A A o . 9 9 6 6 6 6 6 6 9 9 o . Z A z z z z z z z z z z z z z z A A + . 9 9 5 6 f ",
"6 * = % O u M b z z z z z z z z z z z z z z z z b M M O O = = 6 6 = = O O n M b z z z z z z z z z z z z z z z z z M M < O = 0 g ",
"6 9 9 % . i A b z z z z z z z z z z z z z z z z z A A + . 9 9 6 6 9 9 o . Z A z z z z z z z z z z z z z z z z z z A A + . 9 9 g ",
"= O O q n b b d r k z z z z z z z z z z z r r z z b b n n O O = = O O n m b b z z r r k z z z z z z z z z z z z z b b m m < O f ",
"9 . . w Z N z t r j z z z z z z z z z z z r r z z z z A A + . 9 9 o . Z A z z z z r r k z z z z z z z z z z z z z z z A A + . j ",
"O M M m b z z j j z z z z z z z z z z z z j j z z z z z z M M O O m M b z z z z z j j z z z z z z z z z z z z z z z z z z M M t ",
"o A A B z z z z z z z z z z z z z z z z z z z z z z z z z A A + . Z A z z z z z z z z z z z z z z z z z z z z z z z z z z A A y ",
". z b z z d r j z z z z z z z z z z z z z z z z z z z z z b z + . z b z z z z z z z z z z z z z z z z z z z z z z r r k z z b j ",
". z z z z s r j z z z z z z z z z z z z z z z z z z z z z z z + . k z z z z z z z z z z z z z z z z z z z z z z z r r j z z z z ",
". z z z z k j z z z z z z z z z z z z z z z z z z z z z z z z + . k z z z z z z z z z z z z z z z z z z z z z z z j f z z z z z ",
". z z z z z z z z z z z z z z z z z z z z z z z z z z z z z z + . k z z z z z z z z z z z z z z z z z z z z z z z z z z z z z z ",
". z z z z z z z z z z z z z z z z z z z z z z z z z z z z z z + . k z z z z z z z z z z z z z z z z z z z z z z z z z z z z z z ",
". z z z z z z z z z z z z z z z z z z z z z z z z z z z z z z o . h z z z z z z z z z z z z z z z z z z z z z z z z z z z z z z ",
". r r s z z z z z z z z z z z z z z z z z z z z z z z |.}.Q Q W W Q .Xx z z z z z z z z z z z z z z z z z z z z z z z z z r r r ",
". 8 r t z z z z z z z z z z z z z z z z z z z z z |.T e.2.6.*.=.=.&.3./ XXx z z z z z z z z z z z z z z z z z z z z z z z r r 8 ",
", + + 2 r j z z z z z z z z z z z z z z z z z R T w.o.6.A.>.A.=.=.=.6.d.a.! .Xx z z z z z z z z z z z z z z z z z z z r r + + f ",
"6 . . 1 8 s z z z z z z z z z z z z z z z z Y w.Z.S.S.A.A.F.!.`.].4.2.5.:.&.3.Q v z z z z z z z z z z z z z z z z z z r r o . j ",
"6 , , , + 3 r j z z z z z z z z z z z r r  XE.H.S.A.F.).;X>X2X4X>X%X%X!.=.x.&.a.^ x z z z z z z z z z z z z z z z r r + + , , f ",
"6 6 4 , . 2 r j z z z z z z z z z z z r r t.L.b.S.D.{.;X2X5X9XeX2X>X>X;X{.k.-.=.e.}.n z z z z z z z z z z z z z z r r o . 4 6 f ",
"6 6 4 4 , > + 7 r k z z z z z z z z z f OXG.M.B.{.].].>X0XeXrXyXwX,X-X'.].L.-.-.=.r.v z z z z z z z z z z z z r r + + , , 4 6 r ",
"6 6 6 6 6 > . 3 8 j z z z z z z z z z +X^.M.M.[.(.].>XqXtXuXyXyXwX0X6X%XQ.).!.>.>.q.XXx z z z z z z z z z z z r r o . 4 6 6 6 8 ",
"6 6 6 6 6 4 , > + e r z z z z z z z z #X(.C.B.Z.(.;X4XwXtXtX9XqX6X6X8X*X`.!.!.5.;.=.r.l z z z z z z z z z r r + o , , = 0 5 6 o ",
"6 6 6 6 6 6 4 o . 7 r z z z z z z z z #X(.V.{...&.'.7XeXwX9X1X7Xy.3X3X&X,.+.+.D.-.l.3..Xv z z z z z z z z r r o . 4 6 0 9 5 6 o ",
"6 6 6 6 6 6 4 4 , + + r r r r r r r y ~.K.V.D.` $.!.2XwXeX0X,X4Xu.q.a.X.O.+.[ O.;.;.:.r.u r r r r r r r r + + , , 4 6 5 5 6 6 n ",
"6 6 6 6 6 6 6 6 6 o . r r r r r r y #XT.N.V.+.#.5.d.%X4X6X6X5X4Xg.X. . .[ { [ O.-.;.;.0.u r r r r r r r r o . 4 6 6 6 6 6 6 6 B ",
"6 6 6 6 6 6 6 6 6 = * + o o o o o @ W.Y.I.K.O.` @.*.d.$X3X3X3X<X*X&Xg.X.{ } { O.z.z.z.8.@ o o o o o o o o # * 6 6 6 6 6 6 6 6 z ",
"6 6 6 6 6 6 6 6 6 0 9 . . . . . . + W.Y.I.C.O.O.O.*.6.d.g.y.-X<X<X<X*X&X1.} { O.z.z.z.8.@ . . . . . . . . 9 9 5 6 6 6 6 6 6 6 f ",
"6 6 6 5 = - 6 : * O O M M M M M M M K '.Y.T.$.,.,.` ,.s.u.u.u.f.e.=X*X=Xs.<.<.O.c.x.x.~ J M M M M M M M B < O = 0 5 6 6 6 6 6 f ",
"6 6 6 5 9 : 6 ; 9 X . A A A A A A A L #XT.C.)._ | ,._.f.h.p.' _.a.=X=X=Xa.2.$.@.l.v.k.t.L A A A A A A A A + . 9 9 5 6 6 6 6 6 f ",
"6 6 6 6 5 : * $ O n B z z z z z z z z Y G.N.(._ ) ) I p.p.| | p.,.f._.`.d.3.&.L.N.I.~.K b z z z z z z z z B B 1 X = 0 5 6 6 6 f ",
"6 6 6 6 6 : 9 < . B A z z z z z z z z z G.N.V.A.] ] ) 1.p.9.| p.p.h.f.2.7.F.J.C.P.Y.:XG z z z z z z z z z A A + . 9 9 5 6 6 6 j ",
"6 6 6 5 = $ O p M b z z z z z z z z z z F n.C.b.%.%.] I i.i.i.i.s.h.d.7./.S.K.I.P.Y.K z z z z z z z z z z z z M M O O = 0 5 6 1 ",
"6 6 6 5 9 $ . v A z z z z z z z z z z z z j.m.m.S.O.#.<.<.( P <.E a.Q.D.J.K.Y.Y.T.W.n z z z z z z z z z z z z A A + . 9 9 5 6 o ",
"6 0 0 % O u B b z z z z z z z z z z z z z F R.B.m.b.c.-.@.#.<.` X.4.Z.L.C.I.M.L.@XH z z z z z z z z z z z z z z z B B 1 X = 0 m ",
"5 9 9 % . i A b z z z z z z z z z z z z z z F R.H.m.V.l.S./.7.7.)./.J.V.C.M.G.OXH z z z z z z z z z z z z z z z z A A + . 9 9 V ",
"* O O q M m z z z r r z z z z z z z z z z z z F ^ L.B.b.z.S.S.S.J.V.m.M.H.~.oXH z z z z z z z z z z z z z r r k z z z M B O O k ",
"9 . . w Z N z z z r r z z z z z z z z z z z z z v F e.!.F.S.A.c.v.J.v.(.OXF n z z z z z z z z z z z z z z r r j z z z A A + . j ",
"O B B M z z z z z k h z z z z z z z z z z z z z z z G D D oX`.!.R.K K D G z z z z z z z z z z z z z z z z k h z z z z z z B B z ",
"o A A B z z z z z z z z z z z z z z z z z z z z z z z z z L U a a Z A z z z z z z z z z z z z z z z z z z z z z z z z z z A A z ",
". z z z z z z z z z z z z z z z z z z z z z z z z r r z z z z + . z z z z r r z z z z z z z z z z z z z z z z z z z z z z z z z ",
". z z z z z z z z z z z z z z z z z z z z z z z z r r z z z z + . k z z z r r z z z z z z z z z z z z z z z z z z z z z z z z z ",
". z z z z z z z z z z z z z z z z z z z z z z z z j j z z z z + . k z z z j j z z z z z z z z z z z z z z z z z z z z z z z z z ",
". z z z z z z z z z z z z z z z z z z z z z z z z z z z z z z + . k z z z z z z z z z z z z z z z z z z z z z z z z z z z z z z ",
". z z z z z z z z z z z z z z z z z z z z z z z z z z z z z z + . k z z z z z z z z z z z z z z z z z z z z z z z z z z z z z r ",
". z z z z z z z z z z z z z z z z z z z z z z z z z z z z z z + . k z z z z z z z z z z z z z z z z z z z z z z z z z z z z z r ",
". r r s z z z z z z z z z z z z z z z z z z z z z z z z z r r o . r r z z z z z z z z z z z z z z z z z z z z z z z z z z r r j ",
". 8 r t z z z z z z z z z z z z z z z z z z z z z z z z z r 8 o . 8 r z z z z z z z z z z z z z z z z z z z z z z z z z z r r j ",
", o o 2 r d z z z z z z z z z z z z z z z z z z z z z r r + o , 4 o o r r h z z z z z z z z z z z z z z z z z z z z z r r + o j ",
"6 . . 1 8 s z z z z z z z z z z z z z z z z z z z z z r r o . 6 6 . . 7 r z z z z z z z z z z z z z z z z z z z z z z r r o . j ",
"6 4 4 , o 3 r j z z z r r z z z z z z z z z z z z r r o o , 4 6 6 4 4 o o r r z z r r z z z z z z z z r r z z z z r r + o , 4 f ",
"6 6 4 , . 2 r j z z z r r z z z z z z z z z z z z r 8 . . 4 6 6 6 6 6 o . 7 r z z r r k z z z z z z z r 8 z z z z r r o . 4 6 f ",
"6 6 4 4 4 > o 7 r j z j j z z z z z z z z z z r r + o , 4 4 6 6 6 6 6 4 4 o o r r j j z z z z z z z z j j z z r r + o , 4 4 6 f ",
"6 6 6 6 6 > o 3 7 j j z z z z z z z z z z j f 7 7 o o 4 6 6 6 6 6 6 6 6 6 o o 7 7 f j z z z z z z z z z z j j e 7 o o 4 6 6 6 f ",
"6 6 6 6 6 4 4 > o 7 r z z z z z z z z z z r r o o 4 4 6 6 6 6 6 6 6 6 6 6 4 4 o o r r k z z z z z z z z z r r + o , 4 6 6 6 6 f ",
"6 6 6 6 6 6 4 , > 2 3 d j j j j j j j j j 3 3 > > 4 6 6 6 6 6 6 6 6 6 6 6 6 6 > > 2 3 s j j j j j j j j f 3 3 > > 4 6 6 6 6 6 f ",
"6 6 6 6 6 6 4 4 4 o o r r r r r r r r r r o o 4 4 4 6 6 6 6 6 6 6 6 6 6 6 6 6 4 4 o o r r r r r r r r r r o o , 4 4 6 6 6 6 6 f ",
"6 6 6 6 6 6 6 6 6 & % 1 1 1 1 1 1 1 1 1 1 % % 6 6 6 6 6 6 6 6 6 6 6 6 6 6 6 6 6 6 % % 1 1 1 1 1 1 1 1 1 1 % % 6 6 6 6 6 6 6 6 f ",
"6 6 6 6 6 6 6 6 6 0 0 . . . . . . . . . . 0 9 6 6 6 6 6 6 6 6 6 6 6 6 6 6 6 6 6 6 0 9 o . . . . . . . . . 9 9 5 6 6 6 6 6 6 6 f ",
"f f f f f t 7 1 o X X . . . . . . . . 7 7 g g f f f f f f f f f f f f f f f f f f r r o . . . . . . . . . X X 7 8 f f f f f f 1 "
};
