/* XPM */
static char *_e4db0d5c8724833f8e891fbc20a1df5wNiBiLRD3zDpSV33[] = {
/* columns rows colors chars-per-pixel */
"64 64 256 2 ",
"   c #051B0C",
".  c #1C160A",
"X  c #1C190E",
"o  c #171706",
"O  c #0D1B1B",
"+  c #0A1A17",
"@  c #131C14",
"#  c #1B1D15",
"$  c #131C1C",
"%  c #1B1D1B",
"&  c #171613",
"*  c #1E0D06",
"=  c #241503",
"-  c #2C160A",
";  c #231B0D",
":  c #2C1A0D",
">  c #261508",
",  c #331C0C",
"<  c #381C0C",
"1  c #251C13",
"2  c #2B1D13",
"3  c #241E1A",
"4  c #291918",
"5  c #341E13",
"6  c #371F18",
"7  c #220C00",
"8  c #032B17",
"9  c #15241A",
"0  c #1B241C",
"q  c #1C2B1F",
"w  c #182518",
"e  c #08311C",
"r  c #12311E",
"t  c #18311E",
"y  c #3D220E",
"u  c #37210A",
"i  c #252414",
"p  c #2B2315",
"a  c #24241D",
"s  c #2C231B",
"d  c #232C1E",
"f  c #2C2B1C",
"g  c #2F2816",
"h  c #342315",
"j  c #3C2414",
"k  c #34241C",
"l  c #3B241A",
"z  c #3E2A1C",
"x  c #39291A",
"c  c #2D301E",
"v  c #39301B",
"b  c #22210F",
"n  c #0D1E21",
"m  c #061E20",
"M  c #141E21",
"N  c #1D1E26",
"B  c #2A1E22",
"V  c #321E22",
"C  c #0C2326",
"Z  c #1B2424",
"A  c #1C2C22",
"S  c #162827",
"D  c #143423",
"F  c #1B3325",
"G  c #1D352A",
"H  c #173A29",
"J  c #1C3C2C",
"K  c #173926",
"L  c #1E3534",
"P  c #222324",
"I  c #2B2522",
"U  c #242C23",
"Y  c #2C2B23",
"T  c #242C2B",
"R  c #2B2C2C",
"E  c #272729",
"W  c #322622",
"Q  c #342C23",
"!  c #3C2C24",
"~  c #342D2B",
"^  c #3B2C2A",
"/  c #3B2622",
"(  c #233125",
")  c #2C3326",
"_  c #23342C",
"`  c #2B332A",
"'  c #233B2C",
"]  c #2C3929",
"[  c #333125",
"{  c #3C3127",
"}  c #34332B",
"|  c #3B332B",
" . c #3A3B2E",
".. c #383B2D",
"X. c #292D36",
"o. c #233433",
"O. c #2C3434",
"+. c #2C3B34",
"@. c #2C333B",
"#. c #243A36",
"$. c #353432",
"%. c #3D3532",
"&. c #333D33",
"*. c #3B3A32",
"=. c #383E3A",
"-. c #382F30",
";. c #431E0B",
":. c #44240C",
">. c #48250C",
",. c #432513",
"<. c #492613",
"1. c #452A15",
"2. c #4B2B16",
"3. c #422619",
"4. c #442B1C",
"5. c #4B2D1B",
"6. c #49261D",
"7. c #512D16",
"8. c #532C1C",
"9. c #522716",
"0. c #44301C",
"q. c #4B311C",
"w. c #4E371B",
"e. c #52331D",
"r. c #58371E",
"t. c #442D22",
"y. c #4A2D21",
"u. c #452924",
"i. c #512D21",
"p. c #453224",
"a. c #4C3323",
"s. c #4F3A26",
"d. c #44342B",
"f. c #4B352B",
"g. c #443B2C",
"h. c #4D3B2C",
"j. c #433926",
"k. c #543523",
"l. c #5A3524",
"z. c #543B25",
"x. c #5B3B25",
"c. c #54362A",
"v. c #543C2C",
"b. c #5C3D2B",
"n. c #5C3428",
"m. c #443C33",
"M. c #4C3C33",
"N. c #463A37",
"B. c #543E32",
"V. c #5B3E31",
"C. c #543D39",
"Z. c #623C25",
"A. c #623E2B",
"S. c #6A3E2D",
"D. c #673826",
"F. c #623E31",
"G. c #6E3E30",
"H. c #1A412C",
"J. c #1D4834",
"K. c #2D4B3B",
"L. c #264635",
"P. c #324C3D",
"I. c #364638",
"U. c #2D513E",
"Y. c #25513C",
"T. c #31523E",
"R. c #22412F",
"E. c #4D432E",
"W. c #55422D",
"Q. c #5D422D",
"!. c #574229",
"~. c #444133",
"^. c #4C4234",
"/. c #4D4832",
"(. c #43423B",
"). c #4B433B",
"_. c #4A4C3C",
"`. c #454C39",
"'. c #544234",
"]. c #5C4333",
"[. c #5D4934",
"{. c #55433B",
"}. c #5C4539",
"|. c #5C4A3B",
" X c #544A39",
".X c #45503F",
"XX c #634127",
"oX c #63422D",
"OX c #6A452D",
"+X c #67492E",
"@X c #634433",
"#X c #6A4533",
"$X c #644A34",
"%X c #6B4A34",
"&X c #624639",
"*X c #6A4639",
"=X c #644A3B",
"-X c #6C4C3A",
";X c #724434",
":X c #724B34",
">X c #734D3A",
",X c #784F3B",
"<X c #6D513D",
"1X c #665139",
"2X c #73533C",
"3X c #78543E",
"4X c #725037",
"5X c #394A46",
"6X c #2D5542",
"7X c #2C5A46",
"8X c #2A5A48",
"9X c #345444",
"0X c #3B5345",
"qX c #335946",
"wX c #345D49",
"eX c #3B5C4C",
"rX c #38554A",
"tX c #3D5256",
"yX c #3D4E55",
"uX c #2B674D",
"iX c #35624C",
"pX c #3B624E",
"aX c #35694E",
"sX c #2C6952",
"dX c #3D6453",
"fX c #336C52",
"gX c #3D6A55",
"hX c #3A6A55",
"jX c #37755A",
"kX c #3B5860",
"lX c #3B7D63",
"zX c #464947",
"xX c #544943",
"cX c #5D4B42",
"vX c #574744",
"bX c #44574A",
"nX c #59544B",
"mX c #455655",
"MX c #595552",
"NX c #634D42",
"BX c #6B4E43",
"VX c #675448",
"CX c #745442",
"ZX c #7A5744",
"AX c #615554",
"SX c #7E4E40",
"DX c #426A56",
"FX c #446B58",
"GX c #44755C",
"HX c #50715E",
"JX c #467B64",
"KX c #70706C",
"LX c #3A8161",
"PX c #989C97",
"IX c #99A2A1",
"UX c #AFB0A8",
/* pixels */
"N N N N N % % 0 (   r pXJXsXuXLXjXfXjXjXFX8   G S 0 0 % % N P P Z C M M Z 0 A ( r 8 e aXGXjXfXJXlXsXsXJXuX8   ' A 9 0 Z C n C 5X",
"X.@.X.X.X.O.` U ( F H.iXGXjXjXjXfXfXGXGXFXJ F ' _ _ U Z % & & & M M M Z % % # 9 F K H.aXgXGXfXjXjXjXlXJXaXH.r G F F o._ L L o.tX",
"@.@.@.X.O.=.+.( ' P.eXiXiXfXfXsXaXaXFXiX6XJ ' 9 @ @ % 0 P E R R $ $ P E E 3 # 0 9 F K L.Y.dXdXiXfXfXsXuXgXDXU.r F G +.G o.#.#.tX",
"@.X.X.o.o._ ' ' ' eXHXpX6X7XuX7XqXY.U.H.r A ( @ 0 a a I Y ~ ~ } % N E ~ ^ W I Y 0 U 9 t r K.K.K.7X8X7XY.iXJXpXJ J D F F o.o.L 5X",
"@.T T #.o.D G K.U.pXDXpXwXwXwXqXR.D F F 9 ( ] Y *.| ~ Q Q Q Q ~ # 3 W ^ ^ / / ! { } d ( w U A _ J qXdXeX6XwXpXeX6XH D K #.J G rX",
"#._ G #.J D J.wXDXwX6XqXeX9XK.R.A 9 w ] R } } [ Q Q W W W Q { | & 3 W ^ / 6 l k ! { Y *.Y Y a U 9 #.9XrX9XqXpXDXpXL.J H J J G eX",
"G _ G K H J.6XpXDXwX6X9XP.' A A a ` U } } %.s W | | { { ! ! z Q X s ! d.d.u.u.t.l ! f g.Q | W ~ P q A ' P.eXpXwXiXwX6XH D K J 0X",
"F ' J r K 7XgXhX6XwXeX9X' w 0 ` I m.Q ^ ^ M.! d.! p.f.M.B.'.M.h.1 f d.'.B.c.c.V.y.d.x ! k d.^ ^ %.} U q ' K.9XqXwXFXgXH.e J J.9X",
"F D K L.wXiX7X7XJ.6X0XF ` U } Q s W ! 6 d.M.f.5 l j z 4.h '.v.'.b i ^.'.B.l y.y.j h 2 M.m.6 t.6 ^ m.} U ` ' L.pXqXwXiXdXwXK D eX",
"G J J L.pXpX7XU.6XR.' d ..Y ! W k / d.l c.V.V.3.y.y.a.a.j ].v.'.i i ^.'.v.3.a.a.p.t.h '.M.k f./ k ! { Y } ( ' K.rXqXqXgXiXH.K 6X",
"' T.qXqXdXdXqX9XK.F ( d [ ! d.l p.f.c.u.V.].].4.V.b.V.v.4.].v.'.i i ^.'.'.4.v.b.'.c.z ].'.z V.f.z h p.Q } d ] ' 9X9XeXdXiXwX6XY.",
"K pXHXDXeXrX9X9Xq ] ..f s d.B.j V.V.V.y.V.@X@X6.@X@X@XV.4.].v.'.; i ^.'.].y.].@XQ.z.4.[.].p.&X'.c.h j.! { s ..( ' P.eXqXqXHXGXJ.",
"D eXFXeX9XP.L.' w )  .{ ! v.c.3.].].].5.b.V.F.<.V.b.].V.4.].v.'.; i ^.}.].5.b.@XQ.z.1.].Q.5.@XQ.Q.4.a.f.g.Q  .R 0 ( P.9X6XgXgXJ.",
"K T.9XP.0X0X_ 0 ) Y s h.}.'.4.a.Q.Q.Q.5.b.oX@X5.b.b.@X].4.].W.'.; s {.}.].5.b.oXoXz.1.Q.Q.2.oXx.Q.q.q.].'.f.! Y Y 0 _ rXeX7X7X8X",
"J K.9X9XbX5X` 0 } | 2 v.NXb.y Q.oXQ.oX5.b.oX@X5.@X@X*X@X5.].'.}.2 h '.&XF.8.S.#X#Xx.2.oXQ.2.#XoXQ.!.1.].'.'.W | } U ( 5XdX7X6XsX",
"D U.bXbX0X&.R Y s {.t.s.].v.y -X$X$X$Xq.b.oXoX2.%X*X-X*X5.@Xb.}.: 5 B.].A.8.#X3X#Xx.2.oXoXe.%X%X$X$Xy !.v.}.k M.s } R _ qXdX7X8X",
"K qXbXbXbXa Q | {.NXa.c.b.Q.5.%X-X-X-Xe.x.A.oX2.%X%X2X-Xe.oXx.=X: h '.b.b.8.:X,X3X#Xe.Q.oXe.OX2X<X1Xq.W.!.s.z VX'.d.3 a P.rX6XwX",
"D 9X0XP.&.0 | g.}.&Xc.V.@X@Xk.#X#XoXoXk.oXb.oXl.#XoX#X#Xe.#Xx.Q.2 p '.].#Xx.+X%XOXoXc.Q.Q.z.XXOXQ.$Xa.!.!.W.a.|.|.'.Q i ` 9XqX6X",
"F P.P.I.0 a m.'.}.].v.-X*X%Xb.oX@Xz.Q.b.-X@X=X@X@Xb.].$Xz.<X@X].3 2 M.].$Xx.A.k.b.].'.=X=XQ.oXz.x.Q.z.$X[.1XW.v.].].M.a 9 +.9XL.",
"F L.+.&.& Q M.M.y.3.4.@Xc.x.2.1.q.3.5.3.v.v.b.a.4.3.4.a.3.].v.v.3 3 m.'.'.5.5.<.4.y.4.v.v.4.q.1.5.1.,.!.z.W.0.j 4.p.M.| # A K.R.",
"( ( ( ` X | d.z 4.j 3.b.k.c.,.j a.p.y.5 f.].V.5 y.y.p.y.5 V.v.'.3 a m.'.v.j 5.5.a.z k M.B.j 4.a.k.:.y Q.z.k.,.3.3.j d.m.a 9 ' K.",
"` U R Y s m.t.l v.v.k.$X@X@Xk.k.].}.}.z '.NXNXl ].}.|.'.4.}.}.cX3 a ).{.V.3.z.].=Xf.! cX|.t.s.=X%Xk.1.$X@XQ.5.b.z.3.t.M.Q & A 0X",
"$.Y } s d.M.y.a.V.V.5.b.Q.Q.5.z.].].].4.v.].].z V.].}.V.l ].V.{.3 a ).|.].4.b.*X].f./ {.'.4.z.@XA.A.2.b.Q.b.1.b.@Xa.y.M.| # 0 bX",
"$.Y | 1 m.f.4.V.@X*X5.c.oX@X5.Q.@X].].a.V.v.].a.b.].&X'.4.=X].'.3 3 M.}.].5.b.$Xv.v.p.'.].a.b.Q.b.#Xe.k.Q.@X5.Q.@Xc.y.h.M.i 0 zX",
"$.Q %.s {.p.V.v.b.$Xe.b.$X@X5.Q.Q.b.oXe.b.x.b.5.#Xk.oX#X1.#XoXv.2 1 {.=Xb.7.OXA.b.b.a.'.].k.x.x.A.A.k.@XQ.Q.a.b.*X@XV.l {.| # } ",
"} ~ N.k {.p.&X=X@Xb.,.k.oXb.1.@Xb.oXA.<.l.x.A.:.A.x.#XoX:.oXoXv.2 2 '.$Xl.>.oXZ.#Xx.1.b.b.2.x.OX#Xb.<.b.b.z.5.oXb.v.v.l cXM.s [ ",
"~ ~ N.W B.t.V.=XCX#X,.Q.$XQ.q.<X%X4X:X7.Z.#X%X>.%X%X3X#X<.+X#XoXh h ].$XZ.7.:X:X3XoXq.Q.XXe.OX3XZX@X2.@X@Xb.q.-X-X-X@Xj }.d.. o ",
"~ ~ %.! '.p.V.=X2X$Xq.Q.Q.z.q.$X-X:X%X7.x.oXoX<.-X#X-X#X7.oXx.b.: : c.Q.XXe.OX%X:XoXe.b.b.r.OX%X>XF.5.Q.b.z.q.%X2XCX$X6.}.'.Q 1 ",
"~ Y | m.cX'.].-X#X#XQ.$XQ.@Xv.@X%X#X#Xx.#Xb.#Xx.-XoXoX-Xb.#Xl.].2 p h.].%Xx.OX#XoX$Xb.].@XQ.%XoXA.*Xb.$XQ.].z.$Xb.*XV.6.].h.! . ",
"$.} %.^.NX'.k.z.e.Q.x.#XQ.$X].Q.].c.b.z.=X].$X].].c.k.@Xb.-Xz.=Xk W ^.].<Xx.b.b.c.].V.}.&XQ.oXk.k.#XoX$XQ.$Xv.Q.@X-X*XV.VX|.M.; ",
"$.$.%.).{.j.j 5.,.:.:.x.e.z.4.j y.l 3.j v.v.v.3.l y.4.z l ].p.M.& a g.h.v.j ,.5.4.z l h.h.z 1.1.<.5.1.z.z.z.y 1.< ,.< j ].h.h.> ",
"R } %.{.'.a.1.l.r.:.:.oXb.b.1.j z.a.p.j '.}.'.5 3.'.c.j h |.V.'.& Y ).M.'.j 1.z.s.z h '.].j 1.k.k.5.y Q.Q.z.y ,.].c.,.3.}.B.'.: ",
"$.R %.{.v.x.Z.Z.oXZ.2.oX#Xb.<.x.#XoXb.3.v.].].4.z.Q.b.Q.5.].].{.3 a ^.'.W.1.z.!.!.s.p.'.].a.x.A.@Xb.,.-XQ.Q.,.x.oXb.b.4.].}.'.: ",
"X.R N.{.Q.x.Z.Z.OXA.2.b.@XA.2.oXoXoXQ.4.'.].].3.b.oXA.oX2.b.].'.1 s {.].Q.1.x.Q.$Xv.0.W.Q.e.A.#X@Xb.,.@Xb.Q.2.oXoXQ.b.4.].}.v.- ",
"X.R %.{.Q.x.Z.Z.oXA.2.b.@XA.7.oXZ.Z.Q.5.].}.].3.Q.#XA.oX2.V.].{.4 s {.}.Q.2.x.oXoXv.5.b.].k.A.#X@Xb.<.@Xb.Q.5.oXb.b.].5.].}.v.- ",
"O.R %.{.Q.x.XXXXZ.A.5.b.$XoX2.A.Z.x.Q.q.].}.].5.b.oXZ.A.5.b.].{.4 V {.}.b.2.A.#Xb.z.5.].@Xk.A.oXoXb.5.$XoXQ.5.oXb.b.b.4.].}.V., ",
"@.R | ^.v.x.OX+XoX#Xq.b.].oX2.A.%XoXQ.a.'.'.].y.@X#XoXoX5.].].{.4 V C.}.F.7.oX%XA.b.5.b.F.l.S.#X$X].k.@XoXb.e.oX@X@X@X5.V.].B., ",
"O.R  .^.W.x.oX#X-X-Xk.v.b.Q.k.%X2X%X$Xa.'.V.'.y.%X>X%X%Xk.@X}.C.V V C.}.F.8.#X>X%X@Xk.b.b.l.#X>X<X@Xc.b.b.x.l.%X%X%X=Xa.V.].v.: ",
"_ U  . XW.!.oX+X%X-Xc.'.].@Xc.%X-X$X$Xz.}.].].k.#X%X#X%Xc.&X}.{.V V C.}.*Xl.#X#X%X$Xc.b.@Xb.#X%X-X@Xb.b.@Xb.x.%X#X%X-Xk.}.}.v.- ",
"_ U  . X[.Q.oXoXb.$Xv.=X=X=Xk.oXoXQ.@Xv.=X|.=Xb.x.oXoX#Xk.&XvXxXB B C.cX-Xb.#XoXoX].v.=X=Xb.oXb.Q.].].$X<XoXx.oXb.#X-Xz.=X=XV., ",
"( q [ ~.[.w.y 2.2.1.h c.'.v.y ,.5.1.4.h v.'.'.1.<.<.2.,.4.NX6 xXN E zXs =Xy ,.q.1.j j W.'.,.,.,.q.j y ].z.z.<.,.2.2.3.j V.V.v.> ",
"_ ] I.E.W.w.2.l.z.a.3.v.'.b.1.5.x.e.a.j V.'.Q.<.5.5.l.5.j / AX~ Z O I.nXp.u q.z.s.0.z W.W.1.q.k.z.4.,.@Xx.x.2.5.x.x.a.4.].].V.: ",
"_ I.`./.W.w.z.#X@Xb.4.'.].'.5.z.#Xb.b.5.'.].Q.,.oXA.-X].t.s AXE S + ` nXp h v.Q.].s.4.W.W.0.z.Q.].k.5.@Xb.b.5.k.@X@Xc.4.].V.V.- ",
"] .X_./.!.k.Q.#X$X].y.V.].].q.b.#X@X@X5.].].].2.b.b.@X]./ s % E n S 0 a p v ].].[.v.4.W.!.q.!.$X@Xv.5.@XoXb.5.b.@X#Xz.4.].V.V.- ",
"( `./.E.W.z.oXb.@Xb.y.V.V.Q.q.b.oXS.A.5.b.@X@X2.oXx.x.'.! Y $.T m S Z (.g p.].b.].z.5.b.Q.e.x.oXQ.b.5.Q.oXb.5.oXoX$Xb.q.&X].].: ",
"d `.g.E.!.k.oXb.F.V.y.V.V.b.5.b.S.S.F.5.v.].#X2.#Xb.Q.'.{ a PXS C O T PX1 p.b.c.b.c.y.b.oXr.Z.oXb.Q.5.b.oXb.2.#Xb.#Xb.5.].].].- ",
"d `. .'.Q.e.#X@X*X@Xy.].V.b.e.A.#X#X#X2.v.@X@X2.oXQ.].'.f # IXn C m S UX; p.].@X@Xb.i.b.A.l.OX#X@X@X5.b.oXb.2.%XQ.%X].4.V.V.].> ",
"c `.j. X[.e.%X-X-X*Xk.].b.b.k.@X;X>X>X8.b.oXoX<.%X>X<XNXd.} KXS C S $ KX2 p.=XCX-X@X8.b.A.l.;X,X%X-Xq.x.oXx.2.-X-XCX$X5.V.'.].: ",
"f /.g.W.Q.l.oX2X:X-Xl.oXb.oXn.#XSX;X;Xl.S.x.A.8.>X>X*XBXd.W KXE S + O.KXk f.&X-XCXQ.q.oXOXe.oX3X%X-Xk.b.oXx.2.2X%XCX$X4.V.}.}.> ",
"c ~.g.'.=XQ.oX+X!.XXr.XXx.A.k.S.G.S.#Xl.oXoXoXl.#XF.@XNXf.2 nXa S O E MXk '.=X@Xx.oXz.z.x.x.#Xx.b.$Xk.A.oXoXe.oXoX*X@Xv.=X'.B.> ",
"[ g.j.'.=Xb.x.r.x.oXQ.<X-X*Xb.*Xn.n.F.c.$X@X=Xb.@Xv.&XNXM.Q (.T S S P N.W {.].z.k.$X$X$X$X%X-Xl.b.@XQ.-X*XCXoXb.b.b.V.].VXB.M.k ",
") } { '.].a.5.,.y y < a.a.a.< 3.6.6.5.j s.v.v.j , , 3.l 2 3 3 % + $ % I 4 k j j y u , q.a.u j j ,.< < k.5.k.,., 5.4.l z C.d.d.2 ",
"R } | {.V.4.k.5.v.a.j v.].].6.y.c.a.a.h h.W.v.h p.v.].t.! ).~.(.U R N.xX{.t.p.].b.4.j ].].3.y.V.V.4.3.&XV.v.4.y.c.a.3.k C.M.M.1 ",
"R Y | xXB.a.].].@Xz.j v.].].y.c.BX&X'.0.'.|.|.z v.=X}.f.z |. X_.% 0 ).{.}.6 a.&X].c.4.W.'.a.v.@X=Xa.3.&X@Xv.4.v.&X=XB.t.cXcXvX; ",
"R Y | cXB.k.*X#X#Xb.1.Q.].V.8.A.F.V.v.z h.W.W.j ].=Xb.V.4.'.|.^.i i vX{.=X4.@X$X].Q.a.v.b.c.F.@X*XV.4.b.@Xb.5.@X].&Xv.t.{.{.M.* ",
"} Y | cXV.k.@XA.oXx.q.@Xb.b.8.#Xn.A.@Xq.W.Q.].5.oXoXl.-Xe.z.[.'.p : }.c.@X5.#Xl.Q.z.5.Q.@X8.b.@Xb.$X5.c.A.oX2.@X$X@Xv.y.}.B.{.5 ",
"} Q g.].].l.l.oXx.OX>.#X#X#X;.S.#XD.OX<.oXz.oX2.x.D.D.S.9.oX#Xb.h > ].@X#X<.#Xl.x.x.,.oX#X5.#X#XoX#X5.%Xx.#X7.A.#Xb.b.1.=Xv.}.5 ",
"Y f { '.].x.Z.:XOXOX:.r.r.x.;.S.S.D.OX:.oXQ.$X<.#X;X;X;X9.Z.oXb., = ].Q.A.<.#XA.oXQ.:.x.x.:.D.A.oXb.:.oXr.x.>.XXZ.oXoX,.@Xv.].7 ",
"} } d.'.].b.oX:X2X2Xw.XXoXoXe.,X:X:X:X>.Q.XX@X;.%X>X;X;X9.x.A.Q., : =X$X@X5.2X2X<X$Xq.Q.oXr.>X3X3X#X5.-XXXoXe.2X2XZX-X4.].].NX: ",
"} ~ | ^.].b.Q.%X+X+Xw.!.Q.Q.e.oX,X:X>Xr.$X[.[.4.-XCX*X-Xl.@X@X[.= ; h.'.v.5.$X=X].W.0.z.Q.k.#X-X%XQ.q.Q.z.z.q.$X$X-X].4.'.B.'.= ",
"_ ` =.xXcX|.=XNX[.[.W.[.[.$XW.$XoXQ.Q.v. XE.{.{.{.cXB.}.B.|.'.^.i f ). XcX{.NXNX|. X^. X[.W.@X@X[.1XW.W.W.[.W.[.[.[.'.|.VX).m.3 ",
"L o.+.(.).M.f.f.E.h.j.j.j.h.h.W.!.z.W././. .~.zX(.xXN.).).xX*.*.0 U } *.(.m.m.m.~.~.m.~.M.h.v.h.d.{.h.j.j.W.h.h.^.g.{ m.).} } Y ",
"L #.o.O.R I 1 1 ; o o o o . ; > = o o o o   @ 9 @ Z & % % Z   $ + O $ $ Z P % % 0 # # & . ; : : . 1 X o > > > ; p s X # # @ 0 @ ",
"kXtXyXzXzXN.%.| c f ) f s f Q p g v c ] I.0X0X5X5XmX5XzXzXmX5XmXyXmXyX5XzXzXzXzX5XI.&.d a f k k Y Y s s Q s f | [ _.zXbXzX5X5X_ "
};
