/* XPM */
static char *_1788d8382cc4be884f3653b61c51f73QpcL5TOYD6lraTo7[] = {
/* columns rows colors chars-per-pixel */
"64 64 44 1 ",
"  c #2C2D16",
". c #2A2E18",
"X c #2C2D1A",
"o c #2B2E1F",
"O c #29301A",
"+ c #2C3019",
"@ c #1C3826",
"# c #173B2D",
"$ c #133C2D",
"% c #143C2C",
"& c #113E36",
"* c #193A36",
"= c #2B2F25",
"- c #2A2F2B",
"; c #233420",
": c #2D3322",
"> c #2D3729",
", c #2D382A",
"< c #2E3B2F",
"1 c #203635",
"2 c #2A3034",
"3 c #2E3D33",
"4 c #2E3E36",
"5 c #004336",
"6 c #064136",
"7 c #33452D",
"8 c #2E403A",
"9 c #2F483E",
"0 c #365339",
"q c #2F4C40",
"w c #304D41",
"e c #2E5A48",
"r c #305344",
"t c #305646",
"y c #315847",
"u c #305848",
"i c #315B49",
"p c #325E4B",
"a c #396146",
"s c #35634E",
"d c #376951",
"f c #3C6F52",
"g c #396E54",
"h c #3E775A",
/* pixels */
"2222222&5O hhhhhhhhhh  552222222222222255  hhhhhhhhhh  55222222i",
"2222222&5O hhhhhhhhhh  552222222222222255  hhhhhhhhhh  55222222i",
"22222*5; fhiiiiiiiiiihh  55552222222255  hhiiiiiiiiiihh  552222i",
"22222*5; fhiiiiiiiiiihh  55552222222255  hhiiiiiiiiiihh  552222i",
"22215@ ahpiiiiiiiiiiiiihh  5522222255  hhiiiiiiiiiiiiiihh  5522i",
"22215@ ahpiiiiiiiiiiiiihh  5522222255  hhiiiiiiiiiiiiiihh  5522i",
"255% 0hsiiiiiiiiiiiiiiiiihh  552255  hhiiiiiiiiiiiiiiiiiihh  55i",
"255% 0hsiiiiiiiiiiiiiiiiihh  552255  hhiiiiiiiiiiiiiiiiiihh  55i",
"5  7hdi98yiiiiiiiiiii88iiiihh  55  hhiiii88iiiiiiiiiiiiiiiihh  i",
"5  7hdi98yiiiiiiiiiii88iiiihh  55  hhiiii88iiiiiiiiiiiiiiiihh  i",
" hhgiiiiiiiiiiiiiiiiiiiiiiiiihh  hhiiiiiiiiiiiiiiiiiiiiiiiiiihh8",
" hhgiiiiiiiiiiiiiiiiiiiiiiiiihh  hhiiiiiiiiiiiiiiiiiiiiiiiiiihh8",
" iiiiw8riiiiiiiiiiiiiiiiiiiiiii  iiiiiiiiiiiiiiiiiiiiiiii88iiiii",
" iiiiw8riiiiiiiiiiiiiiiiiiiiiii  iiiiiiiiiiiiiiiiiiiiiiii88iiiii",
" iiiiiiiiiiiiiiiiiiiiiiiiiiiiii  iiiiiiiiiiiiiiiiiiiiiiiiiiiiiii",
" iiiiiiiiiiiiiiiiiiiiiiiiiiiiii  iiiiiiiiiiiiiiiiiiiiiiiiiiiiiii",
" iiiiiiiiiiiiiiiiiiiiiiiiiiiiii  iiiiiiiiiiiiiiiiiiiiiiiiiiiiiii",
" iiiiiiiiiiiiiiiiiiiiiiiiiiiiii  iiiiiiiiiiiiiiiiiiiiiiiiiiiiiii",
" 889iiiiiiiiiiiiiiiiiiiiiiiii88  88iiiiiiiiiiiiiiiiiiiiiiiiii888",
" 889iiiiiiiiiiiiiiiiiiiiiiiii88  88iiiiiiiiiiiiiiiiiiiiiiiiii888",
"2  :8wiiiiiiiiiiiiiiiiiiiii88  22  88iiiiiiiiiiiiiiiiiiiiii88  i",
"2  :8wiiiiiiiiiiiiiiiiiiiii88  22  88iiiiiiiiiiiiiiiiiiiiii88  i",
"222- >8riiiiiiiiiii88iiii88  222222  88iiiiiiiiiiiiiiiiii88  22i",
"222- >8riiiiiiiiiii88iiii88  222222  88iiiiiiiiiiiiiiiiii88  22i",
"22222= <8yiiiiiiiiiiiii88  2222222222  88iiiiiiiiiiiiii88  22228",
"22222= <8yiiiiiiiiiiiii88  2222222222  88iiiiiiiiiiiiii88  22228",
"2222222o 48iiiiiiiiii88  22222222552222  88iiiiiiiiii88  225522 ",
"2222222o 48iiiiiiiiii88  22222222552222  88iiiiiiiiii88  225522 ",
"222222222X 8888888888  222222222222222222  8888888888  22222222h",
"222222222X 8888888888  222222222222222222  8888888888  22222222h",
"22222222265          5522222222222222222255          5522222222i",
"22222222265          5522222222222222222255          5522222222i",
"22215*2&5O hhhhhhhhhh  552222552222222255  hhhhhhhhhh  55222222i",
"22215*2&5O hhhhhhhhhh  552222552222222255  hhhhhhhhhh  55222222i",
"22222*5; fhiiiiiiiiiihh  55222222222255  hhiiiiiiiiiihh  552222i",
"22222*5; fhiiiiiiiiiihh  55222222222255  hhiiiiiiiiiihh  552222i",
"22215@ ahpiiiiiiiiiiiiihh  5522222255  hhiiiiiiiiiiiiiihh  5522 ",
"22215@ ahpiiiiiiiiiiiiihh  5522222255  hhiiiiiiiiiiiiiihh  5522 ",
"255% 0hsiiiiiiiiiiiiiiiiihh  552255  hhiiiiiiiiiiiiiiiiiihh  55h",
"255% 0hsiiiiiiiiiiiiiiiiihh  552255  hhiiiiiiiiiiiiiiiiiihh  55h",
"5  7hdiii88iiiiiiiiiiiiiiiihh  55  hhiiiiiiiiiiiiiiii88iiiihh  i",
"5  7hdiii88iiiiiiiiiiiiiiiihh  55  hhiiiiiiiiiiiiiiii88iiiihh  i",
" hhgiiiiiiiiiiiiiiiiiiiiiiiiihh  hhiiiiiiiiiiiiiiiiiiiiiiiiiihhi",
" hhgiiiiiiiiiiiiiiiiiiiiiiiiihh  hhiiiiiiiiiiiiiiiiiiiiiiiiiihhi",
" iiiiiiiiiiiiiiiiiiiiiiii88iiii  iiii88iiiiiiiiiiiiiiiiiiiiiiiii",
" iiiiiiiiiiiiiiiiiiiiiiii88iiii  iiii88iiiiiiiiiiiiiiiiiiiiiiiii",
" iiiiiiiiiiiiiiiiiiiiiiiiiiiiii  iiiiiiiiiiiiiiiiiiiiiiiiiiiiiii",
" iiiiiiiiiiiiiiiiiiiiiiiiiiiiii  iiiiiiiiiiiiiiiiiiiiiiiiiiiiiii",
" iiiiiiiiiiiiiiiiiiiiiiiiiiiiii  iiiiiiiiiiiiiiiiiiiiiiiiiiiiii8",
" iiiiiiiiiiiiiiiiiiiiiiiiiiiiii  iiiiiiiiiiiiiiiiiiiiiiiiiiiiii8",
" 889iiiiiiiiiiiiiiiiiiiiiiiii88  88iiiiiiiiiiiiiiiiiiiiiiiiii88i",
" 889iiiiiiiiiiiiiiiiiiiiiiiii88  88iiiiiiiiiiiiiiiiiiiiiiiiii88i",
"2  :8wiiiiiiiiiiiiiiiiiiiii88  22  88iiiiiiiiiiiiiiiiiiiiii88  i",
"2  :8wiiiiiiiiiiiiiiiiiiiii88  22  88iiiiiiiiiiiiiiiiiiiiii88  i",
"222- >8riii88iiiiiiiiiiii88  222222  88ii88iiiiiiii88iiii88  22i",
"222- >8riii88iiiiiiiiiiii88  222222  88ii88iiiiiiii88iiii88  22i",
"22222= <8yiiiiiiiiiiiii88  2222222222  88iiiiiiiiiiiiii88  2222i",
"22222-o<3rtiiiiiiiiiitt33oo2222222222oo33ttiiiiiiiiiitt33oo2222i",
"2222222o 48iiiiiiiiii88  22222222222222  88iiiiiiiiii88  222222i",
"2222222-=>,wwwwwwwwww,,==22222222222222==,,wwwwwwwwww,,==222222i",
"222222222X 8888888888  222222222222222222  8888888888  22222222i",
"222222222#$::::::::::$$222222222222222222$$::::::::::$$22222222i",
"22222222265          5522222222222222222255          5522222222i",
"iiiiiq8:X..        44eeiiiiiiiiiiiiiiiiii88          ..88iiiiii+"
};
