/* XPM */
static char *_55cf734593d480baff40ce0ad8b423446V9VOFvZGSVzelQ[] = {
/* columns rows colors chars-per-pixel */
"64 64 49 1 ",
"  c #36030F",
". c #33040F",
"X c #37040F",
"o c #370410",
"O c #380510",
"+ c #3B0813",
"@ c #3C0913",
"# c #390914",
"$ c #3E0B15",
"% c #3D0D17",
"& c #3C0D18",
"* c #400C14",
"= c #410F1A",
"- c #42121A",
"; c #44131B",
": c #44121C",
"> c #50202B",
", c #51212B",
"< c #53232D",
"1 c #53242E",
"2 c #54242E",
"3 c #5D2B2D",
"4 c #652F31",
"5 c #633031",
"6 c #653232",
"7 c #663034",
"8 c #693235",
"9 c #6C3536",
"0 c #6E3737",
"q c #693638",
"w c #6B3838",
"e c #6D3A3A",
"r c #743A38",
"t c #743B39",
"y c #733F3F",
"u c #99513C",
"i c #9F5A44",
"p c #A95E44",
"a c #AA6346",
"s c #A66448",
"d c #AC6348",
"f c #B36A4C",
"g c #B56C4E",
"h c #B96B4B",
"j c #BA6B4C",
"k c #BA6C4C",
"l c #BC6D4D",
"z c #BB7152",
"x c #BC7353",
/* pixels */
"sa65555544444455544455444455..34444444555444555444555455444444+.",
"gk00000000000000000000000000oo40000000000000000000000000000000$o",
"fk00000000000000000000000000228000000000000000000000000000000021",
"fk00000000000000000000000000228000000000000000000000000000000021",
"fk000000000000000000000000002280000000000000000000000000000000$ ",
"fk000000000000000000000000002280000000000000000000000000000000$o",
";*2222222222$+++OO,2222222222222<22222222222$+++++,222222222:+oo",
"%O<22<<<<<<2+OOOoo,<222222222222<<<222<<<<<<+OOOOO,<<<<<2222-Ooo",
"q0000000000000OOhjr000000000000000000000000000OOukt0000000000000",
"q0000000000000OOhjr000000000000000000000000000OOukt0000000000000",
"y000000000000022jjt00000000000000000000000000022ikt0000000000000",
"y000000000000022kkt00000000000000000000000000022ikt0000000000000",
"y0000000000000@Ojkt000000000009000000000000000@Oukt0000000000000",
"y0000000000000Oohkt000000000000000000000000000OOukt0000000000000",
"- <1111<<<1<OXOO  ,1<11111OX    <<<11111<<<<OXooX ,11111<<<<=XXX",
"-o<2222<<<<<+OOOOO,2<<<222Oooooo<<<2222<<<<<OoooOO,22222<<<<-OOO",
"xl00000000000000000000000000Ooalt00000000000000000000000000000$O",
"zk00000000000000000000000000oopjt00000000000000000000000000000$O",
"zk0000000000000000000000000022djt0000000000000000000000000000022",
"zk0000000000000000000000000022djt0000000000000000000000000000022",
"zk00000000000000000000000000OXpkt00000000000000000000000000000$X",
"zk00000000000000000000000000OOpkt00000000000000000000000000000$O",
"-o<111<<1<<<OOOOoo,<111<11OOOOoo<<1111<<<<<<OOOooo,<1111<<<<=ooo",
"-O<222<<2<<<+OOOoo,<222222OOOOOO<<<222<<<<<<+OOOOo,<2<221<<<=ooo",
"y0000000000000oOhjr000000000000000000000000000OOujt0000000000000",
"y0000000000000oohjr000000000000000000000000000OOujt0000000000000",
"y0000000000000<<jjt00000000000000000000000000022ikt0000000000000",
"y0000000000000<<kkt00000000000000000000000000022ikt0000000000000",
"y0000000000000OOhkt000000000000000000000000000OOukt0000000000000",
"y0000000000000OOhkt000000000000000000000000000OOukt0000000000000",
"#X<<<<<<1111OXOO  ,1<11111O     <<<11111<<<<OXOOX ,1<<<<<<11=XXX",
"#O<<<<<<2222+OOOOO,2<<<222Oooooo<<<22221<<<<+OOOOO,<<<<<<<22-OOO",
"xk00000000000000000000000000OOalt00000000000000000000000000000$O",
"zk00000000000000000000000000OOpkt00000000000000000000000000000$O",
"zk0000000000000000000000000022dkt0000000000000000000000000000022",
"zk0000000000000000000000000022dkt0000000000000000000000000000022",
"zk00000000000000000000000000OXpkt00000000000000000000000000000$X",
"zk00000000000000000000000000OOpkt00000000000000000000000000000$O",
"-o<1111111<<ooooOO,1<1<<<<OoOOoo<<<<111111<<OoooOO,1<1<<<<<<=OOO",
"-O<2222222<2+oooOo,222<<<<OoOOOO<<<<222222<2+oooOo,222<<<<<<-OOO",
"y0000000000000OOkkt000000000000000000000000000OOukt0000000000000",
"y0000000000000Oohkt000000000000000000000000000Ooukt0000000000000",
"y000000000000022kkt00000000000000000000000000022ikt0000000000000",
"y00000000000002<kkt0000000000000000000000000002<ikt0000000000000",
"y0000000000000OOhkt000000000000000000000000000OOukt0000000000000",
"y0000000000000OOhkt000000000000000000000000000OOukt0000000000000",
"&o<<22222222OoOOOO,222<<<2OoOOOO<<<<22222222OoOOOO,222<<<<<<-OOO",
"&o<<<<222222+oOOoo,222<<<<OoOOOO<<<<<<222222+oOOoo,222<22<<<-OOO",
"fk00000000000000000000000000Ooalr00000000000000000000000000000$O",
"fj00000000000000000000000000Oopkr00000000000000000000000000000$O",
"fk0000000000000000000000000012dkr0000000000000000000000000000022",
"fk0000000000000000000000000022dkt0000000000000000000000000000022",
"fk00000000000000000000000000oOpjt00000000000000000000000000000$o",
"fk00000000000000000000000000oOpjt00000000000000000000000000000$o",
"%o<<<1<<<1<1OOOOOO,<<<<<11OOOOoo<1<<<<<<<1<1OOOOOO,<<<<<1111=Ooo",
"%O<<<2<<<<<2+OOOOO,<<<<<22OOOOoo<2<<<<<2<<<2+OOOOO,<<<<<2222-Ooo",
"w0000000000000OOkjt000000000000000000000000000OO3000000000000000",
"q0000000000000OOhjt000000000000000000000000000OO3000000000000000",
"q000000000000022kkt000000000000000000000000000227000000000000000",
"q000000000000022kkt000000000000000000000000000227000000000000000",
"e0000000000000OOhkt000000000000000000000000000OO3000000000000000",
"e0000000000000OOhkt000000000000000000000000000OO3000000000000000",
"%o<2222<<<2<+OOOOO,22222<<OoOOOO<2<<2222<<<<+OOOOo,2222<<<2<-OOO",
"%o<22222<<<<+OOOOO,22222<<OoOOOO<<<<2222<<<<+OOOoo,22222<<<<-OOO"
};
